Coordinates
version=1
nRows=8
nColumns=46
inDegrees=yes

Units are S.I. units (second, meters, Newtons, ...)
Angles are in degrees.

endheader
time	pelvis_tilt	pelvis_list	pelvis_rotation	pelvis_tx	pelvis_ty	pelvis_tz	bb_angle	bb_tx	bb_ty	bb_tz	hip_flexion_r	hip_adduction_r	hip_rotation_r	knee_angle_r	knee_angle_r_beta	ankle_angle_r	subtalar_angle_r	mtp_angle_r	crank_angle_r	hip_flexion_l	hip_adduction_l	hip_rotation_l	knee_angle_l	knee_angle_l_beta	ankle_angle_l	subtalar_angle_l	mtp_angle_l	crank_angle_l	lumbar_extension	lumbar_bending	lumbar_rotation	arm_flex_r	arm_add_r	arm_rot_r	elbow_flex_r	pro_sup_r	wrist_flex_r	wrist_dev_r	arm_flex_l	arm_add_l	arm_rot_l	elbow_flex_l	pro_sup_l	wrist_flex_l	wrist_dev_l
      5.00000000	     -9.08269322	      7.50089314	      9.36064779	      0.06410416	      1.16207334	     -0.24162646	      0.00000000	      0.50000000	      0.00000000	      0.25000000	     51.65045241	    -12.82912336	      7.22539787	     80.24366945	      1.40051624	    -22.93992551	     -9.17910283	      0.00000000	      0.00000000	     63.62550375	      9.67957974	      1.29245662	     70.26572738	      1.22636829	     17.31709424	    -11.80735213	      0.00000000	      0.00000000	    -66.62065935	      3.08010058	     -8.11585148	     89.46060069	    -15.35995997	     33.23586995	     54.20878609	     34.70481424	      0.00000000	      0.00000000	     89.78261765	    -12.58143994	     36.56926440	     54.92233737	     24.32894408	      0.00000000	      0.00000000
      5.00500000	     -8.76125248	      6.89753971	      9.17414316	      0.06441920	      1.16185724	     -0.24312676	      0.00000000	      0.50000000	      0.00000000	      0.25000000	     52.72216285	    -12.35438739	      7.22378224	     82.21666506	      1.43495151	    -24.45338935	     -8.64563862	      0.00000000	      0.00000000	     61.83926128	      9.20987065	      1.76238981	     67.86168437	      1.18440983	     17.27982483	    -11.51652537	      0.00000000	      0.00000000	    -66.60793395	      3.64745370	     -7.50398338	     89.47535892	    -15.02081725	     33.35928424	     54.00665658	     34.66221749	      0.00000000	      0.00000000	     89.77523961	    -12.87150059	     36.89089932	     54.51902489	     24.28410683	      0.00000000	      0.00000000
      5.01000000	     -8.38944008	      6.33404509	      8.95502154	      0.06487759	      1.16189634	     -0.24453327	      0.00000000	      0.50000000	      0.00000000	      0.25000000	     53.70503396	    -11.85672176	      7.26212560	     84.09114371	      1.46766733	    -25.83443259	     -8.34831743	      0.00000000	      0.00000000	     60.01307926	      8.70151104	      2.12101987	     65.53846557	      1.14386201	     17.01675825	    -11.28978051	      0.00000000	      0.00000000	    -66.59443165	      4.13422927	     -6.92754661	     89.49255749	    -14.64253831	     33.58423916	     53.52516721	     34.56878130	      0.00000000	      0.00000000	     89.77355565	    -13.12433259	     37.47509584	     53.85446950	     24.22927631	      0.00000000	      0.00000000
      5.01500000	     -8.09261679	      5.75261808	      8.72671384	      0.06531547	      1.16204079	     -0.24604637	      0.00000000	      0.50000000	      0.00000000	      0.25000000	     54.78571488	    -11.41160272	      7.23353488	     85.82683955	      1.49796094	    -27.16310723	     -7.85913621	      0.00000000	      0.00000000	     58.28421558	      8.17797016	      2.53352890	     63.25942728	      1.10408529	     16.46154839	    -10.57958996	      0.00000000	      0.00000000	    -66.57395788	      4.64450654	     -6.29509816	     89.50872786	    -14.31529234	     33.73661455	     53.30241918	     34.52812015	      0.00000000	      0.00000000	     89.76707268	    -13.30875359	     37.66141313	     53.45347662	     24.18174528	      0.00000000	      0.00000000
      5.02000000	     -7.61449215	      5.30707718	      8.34184235	      0.06598230	      1.16280794	     -0.24721367	      0.00000000	      0.50000000	      0.00000000	      0.25000000	     55.63135196	    -10.89582276	      7.32939890	     87.42720547	      1.52589259	    -28.71611765	     -7.72085705	      0.00000000	      0.00000000	     56.26837482	      7.47375823	      2.59450535	     60.87599536	      1.06248655	     16.07163656	    -10.36365090	      0.00000000	      0.00000000	    -66.65010064	      4.94062069	     -5.79011174	     89.53003737	    -13.79582068	     34.03492225	     52.43113011	     34.33888378	      0.00000000	      0.00000000	     89.76853149	    -13.45016121	     38.49209407	     52.26899029	     24.03744862	      0.00000000	      0.00000000
      5.02500000	     -7.17775376	      4.91523134	      7.92003398	      0.06667769	      1.16366700	     -0.24847041	      0.00000000	      0.50000000	      0.00000000	      0.25000000	     56.52833746	    -10.38699914	      7.51842543	     88.96622041	      1.55275347	    -30.37124603	     -7.51721061	      0.00000000	      0.00000000	     54.23196129	      6.85015608	      2.70225687	     58.45694859	      1.02026622	     15.46099641	     -9.99495213	      0.00000000	      0.00000000	    -66.71046608	      5.21880980	     -5.28417190	     89.54911935	    -13.30735657	     34.33963742	     51.66596337	     34.15733621	      0.00000000	      0.00000000	     89.76197161	    -13.59724382	     39.19880450	     51.23756226	     23.92798872	      0.00000000	      0.00000000
      5.03000000	     -6.88610267	      4.37896939	      7.47124635	      0.06732796	      1.16449223	     -0.24968163	      0.00000000	      0.50000000	      0.00000000	      0.25000000	     57.52659812	     -9.70491156	      7.62425990	     90.34562816	      1.57682868	    -32.26487365	     -6.87643383	      0.00000000	      0.00000000	     52.36652073	      6.06122174	      2.77516095	     56.04998649	      0.97825681	     14.67895014	     -9.46642777	      0.00000000	      0.00000000	    -66.66075282	      5.49243856	     -4.64327932	     89.56948510	    -12.82086406	     34.61102039	     50.90232849	     33.95415077	      0.00000000	      0.00000000	     89.76170352	    -13.67514553	     39.81180144	     50.26466424	     23.84361418	      0.00000000	      0.00000000
      5.03500000	     -6.76793110	      3.68950704	      7.11409769	      0.06789724	      1.16494308	     -0.25118609	      0.00000000	      0.50000000	      0.00000000	      0.25000000	     58.70122804	     -9.02712182	      7.58894541	     91.75509131	      1.60142845	    -33.18978257	     -6.46428784	      0.00000000	      0.00000000	     50.72997860	      5.24505735	      3.03998876	     53.72708363	      0.93771451	     13.96310082	     -8.81417300	      0.00000000	      0.00000000	    -66.52454613	      6.00243830	     -3.87377007	     89.57985208	    -12.45305308	     34.76330865	     50.77319598	     33.92612509	      0.00000000	      0.00000000	     89.74222133	    -13.84579042	     39.90737779	     49.94779728	     23.80334702	      0.00000000	      0.00000000
